<?xml version="1.0" encoding="UTF-8"?>
<svg width="90px" height="30px" viewBox="0 0 90 30" version="1.1" xmlns="http://www.w3.org/2000/svg" xmlns:xlink="http://www.w3.org/1999/xlink">
    <!-- Generator: Sketch 63.1 (92452) - https://sketch.com -->
    <title>app-store--white</title>
    <desc>Created with Sketch.</desc>
    <g id="Page-1" stroke="none" stroke-width="1" fill="none" fill-rule="evenodd">
        <g id="app-store--white" fill="#8C9196" fill-rule="nonzero">
            <path d="M90,6.34 L90,5.65 C89.9880797,5.14736395 89.9413008,4.64616054 89.86,4.15 C89.7813893,3.65244911 89.626218,3.17006883 89.4,2.72 C88.934961,1.81212543 88.1922416,1.0764129 87.28,0.62 C86.8285438,0.395068546 86.3468704,0.236756307 85.85,0.15 C85.3514597,0.0599015604 84.8465227,0.00974226358 84.34,-3.55271368e-15 L5.67,-3.55271368e-15 C5.16350224,0.0101628796 4.65859859,0.0603188716 4.16,0.15 C3.6631296,0.236756307 3.18145619,0.395068546 2.73,0.62 C1.82722809,1.08263517 1.09263517,1.81722809 0.63,2.72 C0.405068546,3.17145619 0.246756307,3.6531296 0.16,4.15 C0.0669906127,4.64496845 0.0134886515,5.14654934 -1.42108547e-14,5.65 L-1.42108547e-14,24.38 C0.0031354278,24.8859883 0.0466064816,25.3909213 0.13,25.89 C0.216756307,26.3868704 0.375068546,26.8685438 0.6,27.32 C0.83118775,27.7676279 1.13154652,28.1759808 1.49,28.53 C1.84237081,28.8876747 2.25115736,29.184974 2.7,29.41 C3.14916019,29.6425532 3.63149422,29.8044555 4.13,29.89 C4.63955719,29.9678667 5.15454863,30.0046518 5.67,30 L84.34,30 C84.8459883,29.9968646 85.3509213,29.9533935 85.85,29.87 C86.3485058,29.7844555 86.8308398,29.6225532 87.28,29.39 C87.7303885,29.1626078 88.1421098,28.8656285 88.5,28.51 C88.8559031,28.1537832 89.1559548,27.7458478 89.39,27.3 C89.616218,26.8499312 89.7713893,26.3675509 89.85,25.87 C89.9341935,25.3773722 89.9843124,24.8795244 90,24.38 L90,6.34 Z M89.35,22.87 L89.35,24.38 C89.3435202,24.8456183 89.3034159,25.3101604 89.23,25.77 C89.1504351,26.1995836 89.0054137,26.6144123 88.8,27 C88.5987383,27.369877 88.3424848,27.7070526 88.04,28 C87.7288007,28.3101598 87.3711788,28.5699418 86.98,28.77 C86.5875857,28.9717873 86.1656954,29.1101673 85.73,29.18 C85.2639565,29.2575721 84.7924496,29.2977004 84.32,29.3 L5.69,29.3 C5.21757893,29.297069 4.746122,29.256945 4.28,29.18 C3.83832468,29.1275205 3.40692672,29.0095601 3,28.83 C2.63203748,28.6257917 2.2952738,28.3698513 2,28.07 C1.3799614,27.443909 0.970922449,26.6398153 0.83,25.77 C0.751998734,25.3072042 0.708545413,24.8392453 0.7,24.37 L0.7,5.67 C0.708545413,5.20075468 0.751998734,4.73279584 0.83,4.27 C0.891464324,3.82858257 1.0231269,3.3998352 1.22,3 C1.42516658,2.62730803 1.68847535,2.28973268 2,2 C2.29026281,1.68355162 2.62755365,1.41371896 3,1.2 C3.40482108,1.00271702 3.83589446,0.864638832 4.28,0.79 C4.7463449,0.71485375 5.21766321,0.674741553 5.69,0.67 L84.33,0.67 C84.7990178,0.674790198 85.2670085,0.714903684 85.73,0.79 C86.1700503,0.868108808 86.5973457,1.00605456 87,1.2 C87.3712271,1.41550453 87.7082628,1.68513306 88,2 C88.3186417,2.28820559 88.5887696,2.62586537 88.8,3 C89.0015721,3.38812565 89.1367725,3.80724706 89.2,4.24 C89.2807955,4.70934512 89.3275839,5.18391324 89.34,5.66 L89.34,22.87 L89.35,22.87 Z" id="Shape"></path>
            <path d="M18.64,15.24 C18.6542378,13.9674728 19.3231857,12.7920898 20.41,12.13 C19.7252513,11.1428338 18.611003,10.5411397 17.41,10.51 C16.15,10.37 14.92,11.26 14.28,11.26 C13.64,11.26 12.63,10.52 11.57,10.54 C10.164411,10.5834383 8.88488073,11.3617876 8.2,12.59 C6.75,15.1 7.83,18.8 9.2,20.83 C9.9,21.83 10.71,22.93 11.78,22.89 C12.85,22.85 13.21,22.23 14.47,22.23 C15.73,22.23 16.08,22.89 17.17,22.87 C18.26,22.85 18.99,21.87 19.66,20.87 C20.1617222,20.1575978 20.5496849,19.3715517 20.81,18.54 C19.4868577,17.9788712 18.6308976,16.6771807 18.64,15.24 L18.64,15.24 Z" id="Path"></path>
            <path d="M16.59,9.17 C17.1982233,8.43812499 17.4992873,7.49909214 17.43,6.55 C16.4916127,6.6462051 15.623952,7.09253264 15,7.8 C14.391566,8.49333699 14.0823693,9.39935519 14.14,10.32 C15.0903633,10.3352354 15.9945257,9.9108326 16.59,9.17 L16.59,9.17 Z" id="Path"></path>
            <path d="M31.83,20.38 L28.27,20.38 L27.41,22.9 L25.9,22.9 L29.28,13.57 L30.84,13.57 L34.21,22.9 L32.68,22.9 L31.83,20.38 Z M28.64,19.21 L31.46,19.21 L30.07,15.12 L28.64,19.21 Z M41.49,19.5 C41.49,21.61 40.36,22.97 38.65,22.97 C37.7683748,23.0127188 36.9388817,22.5514586 36.51,21.78 L36.51,25.14 L35.11,25.14 L35.11,16.14 L36.46,16.14 L36.46,17.27 C36.8893997,16.474637 37.7262537,15.9848653 38.63,16 C40.36,16 41.49,17.39 41.49,19.5 L41.49,19.5 Z M40.06,19.5 C40.06,18.12 39.35,17.22 38.26,17.22 C37.17,17.22 36.47,18.14 36.47,19.5 C36.47,20.86 37.19,21.78 38.26,21.78 C39.33,21.78 40.06,20.89 40.06,19.5 Z M49,19.5 C49,21.61 47.86,23 46.15,23 C45.2594794,23.0359571 44.4258538,22.562923 44,21.78 L44,25.14 L42.6,25.14 L42.6,16.14 L43.96,16.14 L43.96,17.27 C44.3877316,16.4778566 45.2198245,15.9886168 46.12,16 C47.85,16 49,17.39 49,19.5 Z M47.56,19.5 C47.56,18.12 46.85,17.22 45.76,17.22 C44.67,17.22 44,18.14 44,19.5 C44,20.86 44.71,21.78 45.78,21.78 C46.85,21.78 47.55,20.89 47.55,19.5 L47.56,19.5 Z M53.94,20.3 C54.04,21.22 54.94,21.83 56.17,21.83 C57.4,21.83 58.17,21.22 58.17,20.39 C58.17,19.56 57.66,19.23 56.45,18.94 L55.24,18.64 C53.52,18.23 52.73,17.43 52.73,16.13 C52.73,14.52 54.13,13.42 56.12,13.42 C58.11,13.42 59.45,14.52 59.49,16.13 L58.11,16.13 C58.03,15.2 57.26,14.64 56.11,14.64 C54.96,14.64 54.22,15.21 54.22,16.03 C54.22,16.69 54.71,17.03 55.91,17.38 L56.91,17.63 C58.83,18.08 59.62,18.85 59.62,20.21 C59.62,21.96 58.23,23.05 56.02,23.05 C53.81,23.05 52.6,22 52.51,20.3 L53.94,20.3 Z M62.69,14.49 L62.69,16.1 L64,16.1 L64,17.2 L62.69,17.2 L62.69,21 C62.69,21.58 62.95,21.85 63.52,21.85 L63.98,21.85 L63.98,22.95 C63.7226681,22.9960922 63.4613538,23.0161933 63.2,23.01 C61.82,23.01 61.29,22.5 61.29,21.18 L61.29,17.2 L60.29,17.2 L60.29,16.1 L61.29,16.1 L61.29,14.49 L62.69,14.49 Z M64.73,19.5 C64.73,17.36 66,16 68,16 C70,16 71.23,17.34 71.23,19.48 C71.23,21.62 69.94,23 68,23 C66.06,23 64.73,21.64 64.73,19.5 Z M69.73,19.5 C69.73,18.03 69.06,17.17 67.92,17.17 C66.78,17.17 66.12,18.04 66.12,19.5 C66.12,20.96 66.79,21.83 67.92,21.83 C69.05,21.83 69.77,21 69.77,19.5 L69.73,19.5 Z M72.35,16.1 L73.68,16.1 L73.68,17.26 C73.8581687,16.4910558 74.5616854,15.9602588 75.35,16 C75.5094198,15.9807304 75.6705802,15.9807304 75.83,16 L75.83,17.31 C75.6268681,17.2434355 75.4136447,17.212975 75.2,17.22 C74.7899328,17.2030797 74.3928443,17.3656693 74.1123995,17.6653226 C73.8319548,17.964976 73.6959898,18.3719504 73.74,18.78 L73.74,22.78 L72.35,22.78 L72.35,16.1 Z M82.27,20.9 C81.9600389,22.2369784 80.7056829,23.1360049 79.34,23 C77.34,23 76.13,21.67 76.13,19.55 C76.13,17.43 77.36,16 79.28,16 C81.2,16 82.35,17.29 82.35,19.35 L82.35,19.83 L77.54,19.83 L77.54,19.91 C77.4966498,20.4154541 77.672266,20.9152124 78.022278,21.2824381 C78.37229,21.6496639 78.8630482,21.8490525 79.37,21.83 C80.0601083,21.8935573 80.7058317,21.4822685 80.94,20.83 L82.27,20.9 Z M77.55,18.9 L81,18.9 C81.0253006,18.4452876 80.8592173,18.0007263 80.5419739,17.6739846 C80.2247306,17.3472429 79.7852608,17.1681208 79.33,17.18 C78.8679289,17.1610416 78.4178811,17.3300457 78.0825039,17.6484657 C77.7471267,17.9668856 77.5550201,18.4075674 77.55,18.87 L77.55,18.9 Z" id="Shape"></path>
            <path d="M28.46,6.56 C29.04969,6.52379683 29.6252144,6.7501658 30.0322291,7.17839933 C30.4392439,7.60663286 30.6360983,8.19290888 30.57,8.78 C30.6360983,9.36709112 30.4392439,9.95336714 30.0322291,10.3816007 C29.6252144,10.8098342 29.04969,11.0362032 28.46,11 L26.84,11 L26.84,6.56 L28.46,6.56 Z M27.54,10.4 L28.38,10.4 C28.8033414,10.4254533 29.2156536,10.2590009 29.5026712,9.94677227 C29.7896888,9.63454369 29.9209214,9.20970747 29.86,8.79 C29.9176103,8.37187819 29.7848812,7.94993702 29.4982766,7.64009419 C29.2116719,7.33025135 28.8013367,7.16509585 28.38,7.19 L27.54,7.19 L27.54,10.4 Z M31.36,9.35 C31.3124553,8.75001221 31.6056368,8.17410083 32.1187578,7.85953336 C32.6318788,7.54496588 33.2781212,7.54496588 33.7912422,7.85953336 C34.3043632,8.17410083 34.5975447,8.75001221 34.55,9.35 C34.5975447,9.94998779 34.3043632,10.5258992 33.7912422,10.8404666 C33.2781212,11.1550341 32.6318788,11.1550341 32.1187578,10.8404666 C31.6056368,10.5258992 31.3124553,9.94998779 31.36,9.35 L31.36,9.35 Z M33.86,9.35 C33.86,8.61 33.53,8.18 32.96,8.18 C32.39,8.18 32.05,8.61 32.05,9.35 C32.05,10.09 32.38,10.51 32.96,10.51 C33.54,10.51 33.86,10.08 33.86,9.35 Z M38.8,11 L38.1,11 L37.4,8.51 L36.65,11 L36,11 L35,7.66 L35.68,7.66 L36.29,10.24 L36.99,7.66 L37.63,7.66 L38.32,10.24 L38.38,10.24 L38.98,7.66 L39.65,7.66 L38.8,11 Z M40.51,7.66 L41.16,7.66 L41.16,8.19 L41.21,8.19 C41.3801412,7.79621819 41.782479,7.55481546 42.21,7.59 C42.5436591,7.56501052 42.870553,7.69324362 43.0982275,7.9384316 C43.3259021,8.18361957 43.4296026,8.51910361 43.38,8.85 L43.38,11 L42.71,11 L42.71,9 C42.71,8.45 42.47,8.18 41.98,8.18 C41.7533317,8.1700545 41.5335666,8.25929764 41.3780068,8.42445989 C41.222447,8.58962213 41.1465115,8.81433275 41.17,9.04 L41.17,11.04 L40.5,11.04 L40.51,7.66 Z M44.45,6.34 L45.12,6.34 L45.12,11 L44.45,11 L44.45,6.34 Z M46.05,9.35 C46.0024553,8.75001221 46.2956368,8.17410083 46.8087578,7.85953336 C47.3218788,7.54496588 47.9681212,7.54496588 48.4812422,7.85953336 C48.9943632,8.17410083 49.2875447,8.75001221 49.24,9.35 C49.2875447,9.94998779 48.9943632,10.5258992 48.4812422,10.8404666 C47.9681212,11.1550341 47.3218788,11.1550341 46.8087578,10.8404666 C46.2956368,10.5258992 46.0024553,9.94998779 46.05,9.35 L46.05,9.35 Z M48.56,9.35 C48.56,8.61 48.23,8.18 47.65,8.18 C47.07,8.18 46.74,8.61 46.74,9.35 C46.74,10.09 47.07,10.51 47.65,10.51 C48.23,10.51 48.56,10.08 48.56,9.35 Z M50,10.08 C50,9.47 50.45,9.08 51.26,9.08 L52.12,9 L52.12,8.73 C52.12,8.37 51.89,8.17 51.43,8.17 C50.97,8.17 50.8,8.31 50.73,8.54 L50.08,8.54 C50.15,7.96 50.69,7.59 51.46,7.59 C52.23,7.59 52.79,8.01 52.79,8.73 L52.79,11 L52.15,11 L52.15,10.52 L52.09,10.52 C51.8755321,10.8628924 51.494161,11.0650191 51.09,11.05 C50.8147124,11.0749704 50.5413678,10.9848793 50.3348751,10.8011197 C50.1283824,10.6173602 50.0071624,10.356325 50,10.08 L50,10.08 Z M52.17,9.79 L52.17,9.51 L51.35,9.56 C50.88,9.56 50.67,9.75 50.67,10.05 C50.67,10.35 50.93,10.53 51.3,10.53 C51.729008,10.5471437 52.0931683,10.2185112 52.12,9.79 L52.17,9.79 Z M53.67,9.35 C53.67,8.28 54.22,7.6 55.07,7.6 C55.4878175,7.59275355 55.8742991,7.8207777 56.07,8.19 L56.07,6.34 L56.74,6.34 L56.74,11 L56.1,11 L56.1,10.5 C55.8792365,10.8787433 55.468115,11.1054365 55.03,11.09 C54.21,11.09 53.67,10.42 53.67,9.35 L53.67,9.35 Z M54.36,9.35 C54.36,10.06 54.7,10.49 55.26,10.49 C55.82,10.49 56.17,10.06 56.17,9.35 C56.17,8.64 55.82,8.2 55.26,8.2 C54.7,8.2 54.36,8.63 54.36,9.35 Z M59.59,9.35 C59.5212076,8.73566153 59.8102387,8.1361842 60.3337403,7.80741338 C60.8572418,7.47864257 61.5227582,7.47864257 62.0462597,7.80741338 C62.5697613,8.1361842 62.8587924,8.73566153 62.79,9.35 C62.8587924,9.96433847 62.5697613,10.5638158 62.0462597,10.8925866 C61.5227582,11.2213574 60.8572418,11.2213574 60.3337403,10.8925866 C59.8102387,10.5638158 59.5212076,9.96433847 59.59,9.35 L59.59,9.35 Z M62.1,9.35 C62.1,8.61 61.77,8.18 61.19,8.18 C60.61,8.18 60.28,8.61 60.28,9.35 C60.28,10.09 60.61,10.51 61.19,10.51 C61.77,10.51 62.1,10.08 62.1,9.35 Z M63.68,7.66 L64.33,7.66 L64.33,8.19 C64.5001412,7.79621819 64.902479,7.55481546 65.33,7.59 C65.6636591,7.56501052 65.990553,7.69324362 66.2182275,7.9384316 C66.4459021,8.18361957 66.5496026,8.51910361 66.5,8.85 L66.5,11 L65.83,11 L65.83,9 C65.83,8.45 65.6,8.18 65.1,8.18 C64.8733317,8.1700545 64.6535666,8.25929764 64.4980068,8.42445989 C64.342447,8.58962213 64.2665115,8.81433275 64.29,9.04 L64.29,11.04 L63.62,11.04 L63.68,7.66 Z M70.34,6.82 L70.34,7.67 L71.07,7.67 L71.07,8.23 L70.34,8.23 L70.34,10 C70.34,10.36 70.48,10.51 70.82,10.51 L71.07,10.51 L71.07,11 C70.950244,11.010822 70.829756,11.010822 70.71,11 C69.96,11 69.71,10.73 69.71,10.08 L69.71,8.23 L69.17,8.23 L69.17,7.67 L69.71,7.67 L69.71,6.82 L70.34,6.82 Z M72,6.34 L72.67,6.34 L72.67,8.2 C72.8369016,7.80228707 73.2399969,7.55639898 73.67,7.59 C74.0115693,7.55331236 74.3510822,7.67540967 74.5910533,7.92123368 C74.8310244,8.16705769 74.9449064,8.50941378 74.9,8.85 L74.9,11 L74.23,11 L74.23,9 C74.23,8.46 73.98,8.19 73.5,8.19 C73.2694435,8.17171004 73.0424517,8.25537127 72.8789115,8.4189115 C72.7153713,8.58245174 72.63171,8.80944351 72.65,9.04 L72.65,11.04 L72,11.04 L72,6.34 Z M78.79,10.12 C78.6163998,10.7676742 77.9966415,11.1921662 77.33,11.12 C76.8792421,11.1326266 76.4455978,10.947055 76.1435134,10.6122609 C75.841429,10.2774667 75.7012602,9.82709257 75.76,9.38 C75.7024531,8.93194297 75.8406916,8.48080941 76.1393809,8.14191197 C76.4380702,7.80301454 76.8682632,7.60919686 77.32,7.60999751 C78.32,7.60999751 78.83,8.25 78.83,9.32 L78.83,9.55 L76.44,9.55 C76.4080442,9.8061924 76.4889127,10.063636 76.6616244,10.255538 C76.8343362,10.44744 77.0818685,10.5548862 77.34,10.55 C77.6689105,10.5946017 77.9911989,10.4314681 78.15,10.14 L78.79,10.12 Z M76.44,9 L78.15,9 C78.1700626,8.76980326 78.0908563,8.54199639 77.9323108,8.37390002 C77.7737654,8.20580365 77.5509757,8.11342197 77.32,8.12 C77.0857898,8.1172921 76.8603816,8.2091363 76.694759,8.37475896 C76.5291363,8.54038161 76.4372921,8.76578985 76.44,9 Z" id="Shape"></path>
        </g>
    </g>
</svg>