<?xml version="1.0" encoding="UTF-8"?>
<svg width="90px" height="30px" viewBox="0 0 90 30" version="1.1" xmlns="http://www.w3.org/2000/svg" xmlns:xlink="http://www.w3.org/1999/xlink">
    <!-- Generator: Sketch 63.1 (92452) - https://sketch.com -->
    <title>google-play--rain</title>
    <desc>Created with Sketch.</desc>
    <g id="Page-1" stroke="none" stroke-width="1" fill="none" fill-rule="evenodd">
        <g id="google-play--rain" fill="#8C9196" fill-rule="nonzero">
            <path d="M90,6.3 L90,5.6 C89.9880797,5.09736395 89.9413008,4.59616054 89.86,4.1 C89.7813893,3.60244911 89.626218,3.12006883 89.4,2.67 C89.1655186,2.22142106 88.8655644,1.81024791 88.51,1.45 C88.1493722,1.09047528 87.7342664,0.790114152 87.28,0.56 C86.8285438,0.335068546 86.3468704,0.176756307 85.85,0.09 C85.3498506,0.0199956308 84.8449238,-0.0100993477 84.34,-3.82549895e-15 L5.7,-3.82549895e-15 C5.1950846,-0.0096807234 4.69019079,0.0204122846 4.19,0.09 C3.6931296,0.176756307 3.21145619,0.335068546 2.76,0.56 C1.85366309,1.02243988 1.11812905,1.76147646 0.66,2.67 C0.430616527,3.11961433 0.272079674,3.60197114 0.19,4.1 C0.108699241,4.59616054 0.0619202559,5.09736395 0.05,5.6 L0.05,24.37 C0.0619202559,24.8726361 0.108699241,25.3738395 0.19,25.87 C0.355852674,26.8714478 0.827402449,27.7970826 1.54,28.52 C1.90054993,28.8724804 2.31175948,29.1690906 2.76,29.4 C3.20916019,29.6325532 3.69149422,29.7944555 4.19,29.88 C4.68939686,29.9596267 5.19429497,30 5.7,30 L84.34,30 C84.8459883,29.9968646 85.3509213,29.9533935 85.85,29.87 C86.3485058,29.7844555 86.8308398,29.6225532 87.28,29.39 C88.1885235,28.931871 88.9275601,28.1963369 89.39,27.29 C89.6175866,26.8404925 89.7728285,26.3578928 89.85,25.86 C89.9313008,25.3638395 89.9780797,24.8626361 89.99,24.36 L89.99,7.12 C90,6.84 90,6.57 90,6.3 L90,6.3 Z M89.35,22.85 L89.35,24.36 C89.3439432,24.8256394 89.3038362,25.2902121 89.23,25.75 C89.1514878,26.1862187 89.0064649,26.607797 88.8,27 C88.5987383,27.369877 88.3424848,27.7070526 88.04,28 C87.7288007,28.3101598 87.3711788,28.5699418 86.98,28.77 C86.586409,28.9689586 86.1649682,29.1071912 85.73,29.18 C85.267262,29.2571262 84.7991134,29.2972532 84.33,29.3 L5.71,29.3 C5.24088658,29.2972532 4.77273805,29.2571262 4.31,29.18 C3.87542839,29.1055869 3.4542217,28.9674311 3.06,28.77 C2.67176133,28.5859066 2.31422786,28.3430537 2,28.05 C1.68914624,27.7454668 1.43217178,27.3904363 1.24,27 C1.04254711,26.6093067 0.90436549,26.1913916 0.83,25.76 C0.755258205,25.2936055 0.715148581,24.8223174 0.71,24.35 L0.71,5.62 C0.714790198,5.15098222 0.754903684,4.68299155 0.83,4.22 C0.907234581,3.79571933 1.04532595,3.38481331 1.24,3 C1.42923903,2.59891419 1.68635406,2.23354021 2,1.92 C2.30559555,1.6077079 2.66029385,1.34759582 3.05,1.15 C3.44323192,0.950175186 3.86480815,0.811898181 4.3,0.74 C4.76639454,0.665258205 5.23768263,0.625148581 5.71,0.62 L84.33,0.62 C84.7990178,0.624790198 85.2670085,0.664903684 85.73,0.74 C86.1712185,0.813361029 86.5991743,0.951519989 87,1.15 C87.7797271,1.56188752 88.4096254,2.20928298 88.8,3 C89.0015721,3.38812565 89.1367725,3.80724706 89.2,4.24 C89.2807955,4.70934512 89.3275839,5.18391324 89.34,5.66 L89.34,22.85 L89.35,22.85 Z" id="Shape"></path>
            <path d="M31.64,8.48 C31.6631765,8.97618281 31.4825433,9.46027977 31.14,9.82 C30.756263,10.2168593 30.2216264,10.4314413 29.67,10.41 C29.1115551,10.4301408 28.5701514,10.2157297 28.1769188,9.81869768 C27.7836861,9.42166565 27.5744906,8.87822543 27.6,8.32 C27.5744906,7.76177457 27.7836861,7.21833435 28.1769188,6.82130232 C28.5701514,6.4242703 29.1115551,6.20985917 29.67,6.23 C29.952032,6.23048771 30.2310188,6.28832645 30.49,6.4 C30.7342719,6.49505805 30.9508569,6.64976166 31.12,6.85 L30.77,7.2 C30.4985226,6.87685027 30.0915394,6.6992576 29.67,6.72 C29.2606924,6.71606281 28.8673229,6.87846304 28.58,7.17 C28.2724773,7.4720607 28.1056289,7.88918175 28.12,8.32 C28.1056289,8.75081825 28.2724773,9.1679393 28.58,9.47 C29.1941279,10.0709 30.1758721,10.0709 30.79,9.47 C30.9968325,9.24952927 31.1175051,8.96204451 31.13,8.66 L29.67,8.66 L29.67,8.18 L31.61,8.18 C31.6294205,8.27883281 31.6394651,8.37927864 31.64,8.48 L31.64,8.48 Z" id="Path"></path>
            <polygon id="Path" points="34.71 6.81 32.89 6.81 32.89 8.08 34.53 8.08 34.53 8.56 32.89 8.56 32.89 9.83 34.71 9.83 34.71 10.32 32.38 10.32 32.38 6.32 34.71 6.32"></polygon>
            <polygon id="Path" points="36.88 10.32 36.36 10.32 36.36 6.81 35.25 6.81 35.25 6.32 38 6.32 38 6.81 36.88 6.81"></polygon>
            <polygon id="Path" points="40 10.32 40 6.32 40.52 6.32 40.52 10.32"></polygon>
            <polygon id="Path" points="42.77 10.32 42.26 10.32 42.26 6.81 41.14 6.81 41.14 6.32 43.89 6.32 43.89 6.81 42.77 6.81"></polygon>
            <path d="M49.09,9.8 C48.7030157,10.191465 48.1754559,10.4117683 47.625,10.4117683 C47.0745441,10.4117683 46.5469843,10.191465 46.16,9.8 C45.3470562,8.96521939 45.3470562,7.63478061 46.16,6.8 C46.5469843,6.40853502 47.0745441,6.18823168 47.625,6.18823168 C48.1754559,6.18823168 48.7030157,6.40853502 49.09,6.8 C49.9029438,7.63478061 49.9029438,8.96521939 49.09,9.8 L49.09,9.8 Z M46.54,9.47 C46.8253058,9.76452194 47.2200162,9.92747577 47.63,9.92 C48.0369901,9.92711213 48.4284712,9.76399501 48.71,9.47 C49.0128205,9.16554909 49.175772,8.74911754 49.16,8.32 C49.175772,7.89088246 49.0128205,7.47445091 48.71,7.17 C48.4284712,6.87600499 48.0369901,6.71288787 47.63,6.72 C47.2200162,6.71252423 46.8253058,6.87547806 46.54,7.17 C46.2398009,7.47547145 46.0803722,7.89215998 46.1,8.32 C46.0803722,8.74784002 46.2398009,9.16452855 46.54,9.47 L46.54,9.47 Z" id="Shape"></path>
            <polygon id="Path" points="50.4 10.32 50.4 6.32 51 6.32 53 9.43 53 6.32 53.51 6.32 53.51 10.32 53 10.32 51 7.06 51 10.32"></polygon>
            <path d="M45.44,16.15 C43.8741285,16.1555234 42.6081785,17.4274414 42.6100176,18.9933216 C42.6118608,20.5592017 43.8807983,21.8281392 45.4466784,21.8299824 C47.0125586,21.8318215 48.2844766,20.5658715 48.29,19 C48.3065454,18.2391814 48.0115946,17.5046198 47.4734874,16.9665126 C46.9353802,16.4284054 46.2008186,16.1334546 45.44,16.15 L45.44,16.15 Z M45.44,20.7 C44.7316589,20.7661601 44.0556854,20.3894046 43.7393886,19.75216 C43.4230918,19.1149154 43.5317537,18.3487056 44.0127597,17.8245324 C44.4937657,17.3003592 45.2478388,17.1264091 45.9098538,17.3869095 C46.5718688,17.6474099 47.0051894,18.2885948 47,19 C47.0339345,19.8984935 46.3380947,20.6567804 45.44,20.7 L45.44,20.7 Z M39.24,16.15 C37.6728152,16.1500097 36.4018525,17.4194947 36.4000176,18.9866784 C36.3981866,20.5538621 37.6661763,21.8263166 39.2333568,21.8300002 C40.8005373,21.8336678 42.0744817,20.5671751 42.08,19 C42.0964526,18.2409518 41.8028571,17.5079793 41.2669472,16.9701824 C40.7310374,16.4323856 39.9991013,16.1362155 39.24,16.15 L39.24,16.15 Z M39.24,20.7 C38.533668,20.7493693 37.8692515,20.3608446 37.5659107,19.7210582 C37.2625699,19.0812719 37.3822926,18.3209646 37.8675687,17.8053588 C38.3528448,17.289753 39.1045077,17.124213 39.7614876,17.3882578 C40.4184674,17.6523027 40.84651,18.2919747 40.84,19 C40.8561732,19.4383981 40.6960298,19.8650005 40.3953629,20.1844592 C40.0946959,20.5039178 39.678573,20.6895983 39.24,20.7 L39.24,20.7 Z M31.86,17 L31.86,18.2 L34.73,18.2 C34.6904148,18.7653422 34.4614202,19.3008372 34.08,19.72 C33.4936659,20.3079114 32.6898939,20.6265237 31.86,20.6 C30.0926888,20.6 28.66,19.1673112 28.66,17.4 C28.66,15.6326888 30.0926888,14.2 31.86,14.2 C32.6663264,14.1846838 33.4448622,14.4946564 34.02,15.06 L34.87,14.21 C34.0735507,13.4194278 32.9920761,12.9832331 31.87,13 C29.4399471,13 27.47,14.9699471 27.47,17.4 C27.47,19.8300529 29.4399471,21.8 31.87,21.8 C32.9665665,21.8654617 34.0398908,21.4654263 34.826121,20.6982332 C35.6123512,19.93104 36.0385695,18.8678413 36,17.77 C35.996535,17.5103313 35.9629777,17.2519398 35.9,17 L31.86,17 Z M62.05,18 C61.6954485,16.9513617 60.7264454,16.2335816 59.62,16.2 C58.8993149,16.2181474 58.2160726,16.5248115 57.7235107,17.0512136 C57.2309487,17.5776156 56.9702918,18.2796988 57,19 C56.9837013,19.7528748 57.2735293,20.4801532 57.8031821,21.0154606 C58.332835,21.5507681 59.0569945,21.8483029 59.81,21.84 C60.7585074,21.8436238 61.6452969,21.3701684 62.17,20.58 L61.17,19.94 C60.8707945,20.4258377 60.3405792,20.7212433 59.77,20.72 C59.1802564,20.7411318 58.6373096,20.4003039 58.4,19.86 L62.19,18.3 L62.05,18 Z M58.18,18.95 C58.1527029,18.5337741 58.2943161,18.1241134 58.5728345,17.8136031 C58.8513529,17.5030927 59.2432661,17.3179435 59.66,17.3 C60.1025429,17.2655091 60.5217974,17.502823 60.72,17.9 L58.18,18.95 Z M55.1,21.65 L56.35,21.65 L56.35,13.32 L55.1,13.32 L55.1,21.65 Z M53.1,16.78 C52.7142149,16.3695414 52.1732245,16.1408004 51.61,16.15 C50.1095823,16.2391512 48.9384488,17.481936 48.9384488,18.985 C48.9384488,20.488064 50.1095823,21.7308488 51.61,21.82 C52.1435377,21.8059475 52.6471497,21.5704455 53,21.17 L53,21.58 C53,22.67 52.42,23.25 51.49,23.25 C50.8549273,23.2366447 50.2904784,22.8419252 50.06,22.25 L49,22.69 C49.4168182,23.7072598 50.4106901,24.3685212 51.51,24.3600814 C52.97,24.3600814 54.2,23.5 54.2,21.41 L54.2,16.32 L53.06,16.32 L53.1,16.78 Z M51.63,20.7 C50.7335178,20.6314944 50.0410534,19.8840959 50.0410534,18.985 C50.0410534,18.0859041 50.7335178,17.3385056 51.63,17.27 C52.0638101,17.2902395 52.4707572,17.4859511 52.7574009,17.8121969 C53.0440446,18.1384426 53.1857573,18.5671925 53.15,19 C53.1800891,19.4285025 53.0355205,19.8509479 52.7492038,20.1711705 C52.4628872,20.491393 52.0591863,20.6821438 51.63,20.7 L51.63,20.7 Z M67.88,13.32 L64.88,13.32 L64.88,21.65 L66.12,21.65 L66.12,18.49 L67.86,18.49 C68.8219025,18.5498564 69.7374896,18.0706666 70.2365568,17.2461842 C70.7356239,16.4217017 70.7356239,15.3882983 70.2365568,14.5638158 C69.7374896,13.7393334 68.8219025,13.2601436 67.86,13.32 L67.88,13.32 Z M67.88,17.32 L66.14,17.32 L66.14,14.48 L67.91,14.48 C68.4476023,14.4349251 68.9648144,14.6962428 69.2474793,15.1557518 C69.5301443,15.6152608 69.5301443,16.1947392 69.2474793,16.6542482 C68.9648144,17.1137572 68.4476023,17.3750749 67.91,17.33 L67.88,17.32 Z M75.57,16.13 C74.6424036,16.0703868 73.7687698,16.5701683 73.35,17.4 L74.45,17.86 C74.6767648,17.4499599 75.1230453,17.2111607 75.59,17.25 C76.2465383,17.1859814 76.8316515,17.6638983 76.9,18.32 L76.9,18.41 C76.4993501,18.1986426 76.0529799,18.0887668 75.6,18.09 C74.41,18.09 73.2,18.74 73.2,19.96 C73.2196523,20.4879649 73.4559943,20.9845007 73.853369,21.3326767 C74.2507437,21.6808526 74.774031,21.8498966 75.3,21.8 C75.9326871,21.8391747 76.5370952,21.5331453 76.88,21 L76.93,21 L76.93,21.64 L78.13,21.64 L78.13,18.44 C78.1396904,17.7859224 77.8679755,17.1591899 77.3839442,16.7191614 C76.8999128,16.279133 76.2501971,16.0682013 75.6,16.14 L75.57,16.13 Z M75.42,20.69 C75.01,20.69 74.42,20.49 74.42,19.98 C74.42,19.47 75.13,19.09 75.74,19.09 C76.1380816,19.0808149 76.5314706,19.1774367 76.88,19.37 C76.7927401,20.1033921 76.187784,20.6660436 75.45,20.7 L75.42,20.69 Z M82.42,16.31 L80.99,19.92 L79.51,16.31 L78.21,16.31 L80.43,21.36 L79.17,24.16 L80.46,24.16 L83.88,16.31 L82.42,16.31 Z M71.3,21.65 L72.54,21.65 L72.54,13.32 L71.3,13.32 L71.3,21.65 Z" id="Shape"></path>
            <path d="M21.36,13.76 L8.8,6.58 C8.58797419,6.45492755 8.34616572,6.38929382 8.1,6.38999436 L7.84,6.38999436 C7.68152917,6.42103441 7.52940709,6.47850275 7.39,6.56 C6.95448932,6.81143245 6.68728708,7.27712778 6.68986346,7.78 L6.68986346,22.17 C6.68048982,22.8506803 7.16876341,23.4366086 7.84,23.5500056 L8.1,23.5500056 C8.34616572,23.5507062 8.58797419,23.4850724 8.8,23.36 L21.36,16.18 C21.7857173,15.9368502 22.0545731,15.4900195 22.07,15 C22.0685791,14.495614 21.7978417,14.0304034 21.36,13.78 L21.36,13.76 Z M16.36,12.33 L15.14,14 L12,9.8 L16.36,12.33 Z M20.72,15.14 L11.94,20.14 L17.47,13 L20.75,14.88 C20.8077742,14.9085023 20.8459111,14.9657075 20.85,15.03 C20.8495293,15.0979304 20.8108548,15.1598096 20.75,15.19 L20.72,15.14 Z" id="Shape"></path>
        </g>
    </g>
</svg>